<svg width="700.4" height="97.3" viewBox="0 0 700.4 97.3" xmlns="http://www.w3.org/2000/svg">
<g id="svgGroup" stroke-linecap="round" fill-rule="evenodd" font-size="9pt" stroke="#ffffff" stroke-width="0.25mm" fill="#ffffff" style="stroke:#ffffff;stroke-width:0.25mm;fill:#ffffff">
<path d="M 285.9 46.6 L 285.9 77.2 L 273.4 77.2 L 273.4 48.2 A 24.01 24.01 0 0 0 273.105 44.302 Q 272.761 42.215 272.015 40.559 A 10.416 10.416 0 0 0 270.05 37.6 A 10.965 10.965 0 0 0 264.512 34.514 A 16.556 16.556 0 0 0 260.7 34.1 A 18.338 18.338 0 0 0 256.428 34.579 A 14.914 14.914 0 0 0 252.9 35.9 Q 249.5 37.7 247.65 41.25 Q 246.062 44.298 245.837 48.71 A 29.316 29.316 0 0 0 245.8 50.2 L 245.8 77.2 L 233.3 77.2 L 233.3 3 L 245.8 3 L 245.8 38.2 L 243.1 33.8 Q 245.9 28.7 251.25 25.95 Q 256.6 23.2 263.6 23.2 A 28.142 28.142 0 0 1 270.019 23.906 A 23.194 23.194 0 0 1 275.05 25.7 Q 280.1 28.2 283 33.35 A 20.79 20.79 0 0 1 285.057 38.725 Q 285.637 41.137 285.818 43.955 A 41.271 41.271 0 0 1 285.9 46.6 Z M 354.4 46.6 L 354.4 77.2 L 341.9 77.2 L 341.9 48.2 A 24.01 24.01 0 0 0 341.605 44.302 Q 341.261 42.215 340.515 40.559 A 10.416 10.416 0 0 0 338.55 37.6 A 10.965 10.965 0 0 0 333.012 34.514 A 16.556 16.556 0 0 0 329.2 34.1 A 18.338 18.338 0 0 0 324.928 34.579 A 14.914 14.914 0 0 0 321.4 35.9 Q 318 37.7 316.15 41.25 Q 314.562 44.298 314.337 48.71 A 29.316 29.316 0 0 0 314.3 50.2 L 314.3 77.2 L 301.8 77.2 L 301.8 23.8 L 313.7 23.8 L 313.7 38.2 L 311.6 33.8 Q 314.4 28.7 319.75 25.95 Q 325.1 23.2 332.1 23.2 A 28.142 28.142 0 0 1 338.519 23.906 A 23.194 23.194 0 0 1 343.55 25.7 Q 348.6 28.2 351.5 33.35 A 20.79 20.79 0 0 1 353.557 38.725 Q 354.137 41.137 354.318 43.955 A 41.271 41.271 0 0 1 354.4 46.6 Z M 113.3 54.3 L 113.3 23.8 L 125.8 23.8 L 125.8 52.6 A 25.429 25.429 0 0 0 126.086 56.554 Q 126.414 58.628 127.115 60.283 A 10.645 10.645 0 0 0 129.05 63.35 Q 132.3 66.9 138.3 66.9 Q 142.7 66.9 145.95 65.1 Q 149.2 63.3 151.05 59.7 A 15.754 15.754 0 0 0 152.423 55.745 Q 152.803 53.949 152.88 51.876 A 28.9 28.9 0 0 0 152.9 50.8 L 152.9 23.8 L 165.4 23.8 L 165.4 77.2 L 153.5 77.2 L 153.5 62.8 L 155.6 67.2 Q 152.9 72.4 147.7 75.15 Q 142.5 77.9 136.3 77.9 Q 129.5 77.9 124.3 75.35 Q 119.1 72.8 116.2 67.55 A 21.627 21.627 0 0 1 114.118 62.024 Q 113.3 58.55 113.3 54.3 Z M 175.7 71.9 L 180.5 62.4 A 29.648 29.648 0 0 0 184.72 64.618 A 40.194 40.194 0 0 0 189.1 66.2 Q 194.1 67.7 199.1 67.7 A 34.686 34.686 0 0 0 202.005 67.587 Q 204.873 67.345 206.687 66.585 A 7.389 7.389 0 0 0 207.65 66.1 A 6.512 6.512 0 0 0 209.047 64.993 A 4.507 4.507 0 0 0 210.3 61.8 Q 210.3 59.686 208.638 58.542 A 4.797 4.797 0 0 0 208.5 58.45 A 10.522 10.522 0 0 0 206.785 57.578 Q 205.906 57.221 204.861 56.948 A 20.981 20.981 0 0 0 203.8 56.7 Q 200.9 56.1 197.35 55.6 Q 193.8 55.1 190.25 54.25 A 25.462 25.462 0 0 1 185.483 52.615 A 22.44 22.44 0 0 1 183.8 51.75 Q 180.9 50.1 179.1 47.3 A 10.431 10.431 0 0 1 177.816 44.308 Q 177.3 42.362 177.3 39.9 A 15.046 15.046 0 0 1 178.155 34.76 A 13.542 13.542 0 0 1 180.2 31.05 A 16.841 16.841 0 0 1 184.88 26.943 A 22.588 22.588 0 0 1 188.35 25.25 Q 193.6 23.2 200.8 23.2 Q 206.2 23.2 211.7 24.4 A 38.334 38.334 0 0 1 215.855 25.54 Q 218.663 26.494 220.8 27.8 L 216 37.3 A 27.223 27.223 0 0 0 211.35 35.036 A 22.848 22.848 0 0 0 208.35 34.15 Q 204.5 33.3 200.7 33.3 A 30.538 30.538 0 0 0 197.727 33.435 Q 194.227 33.778 192.25 35 A 7.374 7.374 0 0 0 190.86 36.089 A 4.443 4.443 0 0 0 189.5 39.3 A 5.057 5.057 0 0 0 189.713 40.809 A 3.823 3.823 0 0 0 191.3 42.9 A 11.127 11.127 0 0 0 193.05 43.839 Q 194.346 44.401 196 44.8 Q 198.9 45.5 202.45 45.95 Q 206 46.4 209.5 47.3 Q 213 48.2 215.95 49.75 Q 218.9 51.3 220.7 54.1 A 10.549 10.549 0 0 1 222.021 57.212 Q 222.373 58.584 222.466 60.2 A 20.824 20.824 0 0 1 222.5 61.4 A 14.221 14.221 0 0 1 221.514 66.747 A 13.318 13.318 0 0 1 219.55 70.1 A 16.814 16.814 0 0 1 215.183 73.912 A 23.295 23.295 0 0 1 211.2 75.85 A 29.537 29.537 0 0 1 205.676 77.322 Q 202.934 77.79 199.804 77.879 A 52.583 52.583 0 0 1 198.3 77.9 Q 191.6 77.9 185.45 76.15 A 47.476 47.476 0 0 1 181.359 74.796 Q 179.473 74.068 177.918 73.243 A 21.815 21.815 0 0 1 175.7 71.9 Z M 494.6 77.2 L 459.8 77.2 L 459.8 7.2 L 492.6 7.2 Q 500.683 7.2 506.296 9.237 A 21.099 21.099 0 0 1 511.8 12.15 A 16.489 16.489 0 0 1 516.537 17.527 Q 518.284 20.774 518.393 24.853 A 20.464 20.464 0 0 1 518.4 25.4 A 20.153 20.153 0 0 1 517.902 29.985 A 15.245 15.245 0 0 1 515.8 34.95 Q 513.2 38.9 508.85 41.05 Q 504.5 43.2 499.4 43.2 L 501.2 39.6 A 27.8 27.8 0 0 1 507.294 40.243 A 22.778 22.778 0 0 1 511.8 41.75 Q 516.5 43.9 519.25 48 A 15.734 15.734 0 0 1 521.546 53.574 A 22.365 22.365 0 0 1 522 58.2 A 18.727 18.727 0 0 1 520.947 64.621 A 15.966 15.966 0 0 1 515.1 72.2 Q 510.217 75.739 501.977 76.773 A 59.402 59.402 0 0 1 494.6 77.2 Z M 472.8 17.4 L 472.8 67 L 493.8 67 A 35.748 35.748 0 0 0 497.933 66.778 Q 499.974 66.539 501.655 66.046 A 13.739 13.739 0 0 0 505 64.6 Q 508.9 62.2 508.9 56.9 A 10.892 10.892 0 0 0 508.48 53.784 A 7.857 7.857 0 0 0 505 49.25 A 13.645 13.645 0 0 0 501.597 47.757 Q 498.363 46.8 493.8 46.8 L 471.8 46.8 L 471.8 36.7 L 491.2 36.7 Q 495.583 36.7 498.657 35.703 A 12.358 12.358 0 0 0 501.65 34.3 A 7.743 7.743 0 0 0 505.192 28.679 A 11.153 11.153 0 0 0 505.3 27.1 A 10.381 10.381 0 0 0 504.888 24.09 A 7.655 7.655 0 0 0 501.65 19.8 Q 499.043 18.086 494.828 17.596 A 31.507 31.507 0 0 0 491.2 17.4 L 472.8 17.4 Z M 577.9 94.2 L 581.5 84.9 A 10.731 10.731 0 0 0 585.591 86.68 A 15.248 15.248 0 0 0 588.8 87 Q 592.2 87 594.1 84.85 A 6.823 6.823 0 0 0 595.432 82.481 Q 595.778 81.455 595.913 80.201 A 15.875 15.875 0 0 0 596 78.5 L 596 23.8 L 608.5 23.8 L 608.5 78.2 Q 608.5 86.868 603.795 91.995 A 16.558 16.558 0 0 1 603.65 92.15 A 15.772 15.772 0 0 1 595.774 96.635 Q 593.266 97.259 590.298 97.298 A 30.296 30.296 0 0 1 589.9 97.3 A 29.368 29.368 0 0 1 584.645 96.843 A 26.341 26.341 0 0 1 583.25 96.55 A 17.071 17.071 0 0 1 580.358 95.597 A 13.062 13.062 0 0 1 577.9 94.2 Z M 668.1 94.2 L 671.7 84.9 A 10.731 10.731 0 0 0 675.791 86.68 A 15.248 15.248 0 0 0 679 87 Q 682.4 87 684.3 84.85 A 6.823 6.823 0 0 0 685.632 82.481 Q 685.978 81.455 686.113 80.201 A 15.875 15.875 0 0 0 686.2 78.5 L 686.2 23.8 L 698.7 23.8 L 698.7 78.2 Q 698.7 86.868 693.995 91.995 A 16.558 16.558 0 0 1 693.85 92.15 A 15.772 15.772 0 0 1 685.974 96.635 Q 683.466 97.259 680.498 97.298 A 30.296 30.296 0 0 1 680.1 97.3 A 29.368 29.368 0 0 1 674.845 96.843 A 26.341 26.341 0 0 1 673.45 96.55 A 17.071 17.071 0 0 1 670.558 95.597 A 13.062 13.062 0 0 1 668.1 94.2 Z M 84.2 77.2 L 71.7 77.2 L 71.7 23.8 L 83.6 23.8 L 83.6 38.5 L 82.2 34.2 Q 84.6 28.8 89.75 26 Q 94.373 23.487 101.05 23.23 A 40.256 40.256 0 0 1 102.6 23.2 L 102.6 35.1 A 9.78 9.78 0 0 0 101.732 34.923 A 7.673 7.673 0 0 0 101.1 34.85 Q 100.4 34.8 99.7 34.8 A 19.671 19.671 0 0 0 94.877 35.36 A 13.848 13.848 0 0 0 88.4 38.95 A 13.088 13.088 0 0 0 85.185 44.307 Q 84.508 46.384 84.296 48.911 A 28.633 28.633 0 0 0 84.2 51.3 L 84.2 77.2 Z M 415 77.2 L 403.2 77.2 L 403.2 66.4 L 402.5 64.1 L 402.5 45.2 Q 402.5 39.7 399.2 36.65 Q 396.638 34.283 392.028 33.753 A 24.81 24.81 0 0 0 389.2 33.6 Q 384.7 33.6 380.35 35 A 24.558 24.558 0 0 0 376.223 36.737 A 19.324 19.324 0 0 0 373 38.9 L 368.1 29.8 A 27.861 27.861 0 0 1 374.792 26.043 A 34.527 34.527 0 0 1 378.35 24.85 Q 384.3 23.2 390.7 23.2 A 38.922 38.922 0 0 1 397.742 23.797 Q 401.659 24.518 404.75 26.112 A 19.419 19.419 0 0 1 408.65 28.75 A 17.311 17.311 0 0 1 413.696 36.63 Q 415 40.644 415 45.9 L 415 77.2 Z M 579.4 77.2 L 567.6 77.2 L 567.6 66.4 L 566.9 64.1 L 566.9 45.2 Q 566.9 39.7 563.6 36.65 Q 561.038 34.283 556.428 33.753 A 24.81 24.81 0 0 0 553.6 33.6 Q 549.1 33.6 544.75 35 A 24.558 24.558 0 0 0 540.623 36.737 A 19.324 19.324 0 0 0 537.4 38.9 L 532.5 29.8 A 27.861 27.861 0 0 1 539.192 26.043 A 34.527 34.527 0 0 1 542.75 24.85 Q 548.7 23.2 555.1 23.2 A 38.922 38.922 0 0 1 562.142 23.797 Q 566.059 24.518 569.15 26.112 A 19.419 19.419 0 0 1 573.05 28.75 A 17.311 17.311 0 0 1 578.096 36.63 Q 579.4 40.644 579.4 45.9 L 579.4 77.2 Z M 669.6 77.2 L 657.8 77.2 L 657.8 66.4 L 657.1 64.1 L 657.1 45.2 Q 657.1 39.7 653.8 36.65 Q 651.238 34.283 646.628 33.753 A 24.81 24.81 0 0 0 643.8 33.6 Q 639.3 33.6 634.95 35 A 24.558 24.558 0 0 0 630.823 36.737 A 19.324 19.324 0 0 0 627.6 38.9 L 622.7 29.8 A 27.861 27.861 0 0 1 629.392 26.043 A 34.527 34.527 0 0 1 632.95 24.85 Q 638.9 23.2 645.3 23.2 A 38.922 38.922 0 0 1 652.342 23.797 Q 656.259 24.518 659.35 26.112 A 19.419 19.419 0 0 1 663.25 28.75 A 17.311 17.311 0 0 1 668.296 36.63 Q 669.6 40.644 669.6 45.9 L 669.6 77.2 Z M 388.7 46 L 404.2 46 L 404.2 54.3 L 389.6 54.3 A 31.473 31.473 0 0 0 386.831 54.413 Q 384.11 54.654 382.449 55.413 A 5.393 5.393 0 0 0 381 56.35 A 6.608 6.608 0 0 0 378.805 61.121 A 8.005 8.005 0 0 0 378.8 61.4 A 6.871 6.871 0 0 0 379.317 64.107 Q 379.981 65.675 381.5 66.8 Q 383.646 68.39 387.12 68.716 A 20.137 20.137 0 0 0 389 68.8 A 17.282 17.282 0 0 0 394.128 68.06 A 15.294 15.294 0 0 0 397.25 66.7 Q 400.9 64.6 402.5 60.5 L 404.6 68 A 13.829 13.829 0 0 1 398.438 75.136 A 17.385 17.385 0 0 1 398.15 75.3 Q 394.099 77.565 388.19 77.857 A 36.28 36.28 0 0 1 386.4 77.9 Q 380.4 77.9 375.9 75.85 A 17.968 17.968 0 0 1 371.804 73.311 A 14.977 14.977 0 0 1 368.95 70.15 Q 366.5 66.5 366.5 61.9 A 16.156 16.156 0 0 1 367.404 56.443 A 14.865 14.865 0 0 1 368.65 53.8 A 12.383 12.383 0 0 1 371.939 50.225 Q 373.556 49.019 375.7 48.1 A 22.47 22.47 0 0 1 379.825 46.821 Q 381.962 46.361 384.492 46.159 A 52.949 52.949 0 0 1 388.7 46 Z M 553.1 46 L 568.6 46 L 568.6 54.3 L 554 54.3 A 31.473 31.473 0 0 0 551.231 54.413 Q 548.51 54.654 546.849 55.413 A 5.393 5.393 0 0 0 545.4 56.35 A 6.608 6.608 0 0 0 543.205 61.121 A 8.005 8.005 0 0 0 543.2 61.4 A 6.871 6.871 0 0 0 543.717 64.107 Q 544.381 65.675 545.9 66.8 Q 548.046 68.39 551.52 68.716 A 20.137 20.137 0 0 0 553.4 68.8 A 17.282 17.282 0 0 0 558.528 68.06 A 15.294 15.294 0 0 0 561.65 66.7 Q 565.3 64.6 566.9 60.5 L 569 68 A 13.829 13.829 0 0 1 562.838 75.136 A 17.385 17.385 0 0 1 562.55 75.3 Q 558.499 77.565 552.59 77.857 A 36.28 36.28 0 0 1 550.8 77.9 Q 544.8 77.9 540.3 75.85 A 17.968 17.968 0 0 1 536.204 73.311 A 14.977 14.977 0 0 1 533.35 70.15 Q 530.9 66.5 530.9 61.9 A 16.156 16.156 0 0 1 531.804 56.443 A 14.865 14.865 0 0 1 533.05 53.8 A 12.383 12.383 0 0 1 536.339 50.225 Q 537.956 49.019 540.1 48.1 A 22.47 22.47 0 0 1 544.225 46.821 Q 546.362 46.361 548.892 46.159 A 52.949 52.949 0 0 1 553.1 46 Z M 643.3 46 L 658.8 46 L 658.8 54.3 L 644.2 54.3 A 31.473 31.473 0 0 0 641.431 54.413 Q 638.71 54.654 637.049 55.413 A 5.393 5.393 0 0 0 635.6 56.35 A 6.608 6.608 0 0 0 633.405 61.121 A 8.005 8.005 0 0 0 633.4 61.4 A 6.871 6.871 0 0 0 633.917 64.107 Q 634.581 65.675 636.1 66.8 Q 638.246 68.39 641.72 68.716 A 20.137 20.137 0 0 0 643.6 68.8 A 17.282 17.282 0 0 0 648.728 68.06 A 15.294 15.294 0 0 0 651.85 66.7 Q 655.5 64.6 657.1 60.5 L 659.2 68 A 13.829 13.829 0 0 1 653.038 75.136 A 17.385 17.385 0 0 1 652.75 75.3 Q 648.699 77.565 642.79 77.857 A 36.28 36.28 0 0 1 641 77.9 Q 635 77.9 630.5 75.85 A 17.968 17.968 0 0 1 626.404 73.311 A 14.977 14.977 0 0 1 623.55 70.15 Q 621.1 66.5 621.1 61.9 A 16.156 16.156 0 0 1 622.004 56.443 A 14.865 14.865 0 0 1 623.25 53.8 A 12.383 12.383 0 0 1 626.539 50.225 Q 628.156 49.019 630.3 48.1 A 22.47 22.47 0 0 1 634.425 46.821 Q 636.562 46.361 639.092 46.159 A 52.949 52.949 0 0 1 643.3 46 Z M 13 77.2 L 0 77.2 L 0 7.2 L 13 7.2 L 13 77.2 Z M 24.5 47.5 L 11.6 60.7 L 10.9 45.3 L 47.6 7.2 L 62.2 7.2 L 31.7 39.6 L 24.5 47.5 Z M 64 77.2 L 48.8 77.2 L 22 45.3 L 30.6 35.8 L 64 77.2 Z M 599.469 14.609 A 9.122 9.122 0 0 0 602.2 15 A 10.284 10.284 0 0 0 603.605 14.908 A 7.366 7.366 0 0 0 608 12.75 Q 610.2 10.5 610.2 7.2 A 8.313 8.313 0 0 0 610.193 6.864 A 6.634 6.634 0 0 0 607.95 2.05 A 7.566 7.566 0 0 0 604.837 0.339 A 9.807 9.807 0 0 0 602.2 0 A 10.42 10.42 0 0 0 601.021 0.065 A 7.68 7.68 0 0 0 596.45 2.15 A 7.183 7.183 0 0 0 594.798 4.48 A 7.472 7.472 0 0 0 594.2 7.5 A 7.401 7.401 0 0 0 594.6 9.956 A 7.341 7.341 0 0 0 596.45 12.8 A 7.431 7.431 0 0 0 599.469 14.609 Z M 689.669 14.609 A 9.122 9.122 0 0 0 692.4 15 A 10.284 10.284 0 0 0 693.805 14.908 A 7.366 7.366 0 0 0 698.2 12.75 Q 700.4 10.5 700.4 7.2 A 8.313 8.313 0 0 0 700.393 6.864 A 6.634 6.634 0 0 0 698.15 2.05 A 7.566 7.566 0 0 0 695.037 0.339 A 9.807 9.807 0 0 0 692.4 0 A 10.42 10.42 0 0 0 691.221 0.065 A 7.68 7.68 0 0 0 686.65 2.15 A 7.183 7.183 0 0 0 684.998 4.48 A 7.472 7.472 0 0 0 684.4 7.5 A 7.401 7.401 0 0 0 684.8 9.956 A 7.341 7.341 0 0 0 686.65 12.8 A 7.431 7.431 0 0 0 689.669 14.609 Z" vector-effect="non-scaling-stroke"/>
</g>
</svg>

